<?xml version="1.0" encoding="UTF-8" standalone="no"?>
<svg
   xmlns:dc="http://purl.org/dc/elements/1.1/"
   xmlns:cc="http://creativecommons.org/ns#"
   xmlns:rdf="http://www.w3.org/1999/02/22-rdf-syntax-ns#"
   xmlns:svg="http://www.w3.org/2000/svg"
   xmlns="http://www.w3.org/2000/svg"
   xmlns:sodipodi="http://sodipodi.sourceforge.net/DTD/sodipodi-0.dtd"
   xmlns:inkscape="http://www.inkscape.org/namespaces/inkscape"
   enable-background="new 0 0 32 32"
   height="32px"
   id="Layer_1"
   version="1.1"
   viewBox="0 0 32 32"
   width="32px"
   xml:space="preserve"
   inkscape:version="0.48.4 r9939"
   sodipodi:docname="trash.svg"
   inkscape:export-filename="/media/PrimaryLinuxHome/juri/Downloads/trash.png"
   inkscape:export-xdpi="405"
   inkscape:export-ydpi="405"><metadata
     id="metadata16"><rdf:RDF><cc:Work
         rdf:about=""><dc:format>image/svg+xml</dc:format><dc:type
           rdf:resource="http://purl.org/dc/dcmitype/StillImage" /><dc:title></dc:title></cc:Work></rdf:RDF></metadata><defs
     id="defs14" /><sodipodi:namedview
     pagecolor="#ffffff"
     bordercolor="#666666"
     borderopacity="1"
     objecttolerance="10"
     gridtolerance="10"
     guidetolerance="10"
     inkscape:pageopacity="0"
     inkscape:pageshadow="2"
     inkscape:window-width="1867"
     inkscape:window-height="1056"
     id="namedview12"
     showgrid="false"
     inkscape:zoom="29.5"
     inkscape:cx="15.078458"
     inkscape:cy="20.899188"
     inkscape:window-x="53"
     inkscape:window-y="24"
     inkscape:window-maximized="1"
     inkscape:current-layer="Layer_1" /><g
     id="trash"
     style="fill:#666666"><path
       clip-rule="evenodd"
       d="M29.98,6.819c-0.096-1.57-1.387-2.816-2.98-2.816h-3v-1V3.001   c0-1.657-1.344-3-3-3H11c-1.657,0-3,1.343-3,3v0.001v1H5c-1.595,0-2.885,1.246-2.981,2.816H2v1.183v1c0,1.104,0.896,2,2,2l0,0v17   c0,2.209,1.791,4,4,4h16c2.209,0,4-1.791,4-4v-17l0,0c1.104,0,2-0.896,2-2v-1V6.819H29.98z M10,3.002c0-0.553,0.447-1,1-1h10   c0.553,0,1,0.447,1,1v1H10V3.002z M26,28.002c0,1.102-0.898,2-2,2H8c-1.103,0-2-0.898-2-2v-17h20V28.002z M28,8.001v1H4v-1V7.002   c0-0.553,0.447-1,1-1h22c0.553,0,1,0.447,1,1V8.001z"
       fill="#333333"
       fill-rule="evenodd"
       id="path4"
       style="fill:#666666" /><path
       clip-rule="evenodd"
       d="M9,28.006h2c0.553,0,1-0.447,1-1v-13c0-0.553-0.447-1-1-1H9   c-0.553,0-1,0.447-1,1v13C8,27.559,8.447,28.006,9,28.006z M9,14.005h2v13H9V14.005z"
       fill="#333333"
       fill-rule="evenodd"
       id="path6"
       style="fill:#666666" /><path
       clip-rule="evenodd"
       d="M15,28.006h2c0.553,0,1-0.447,1-1v-13c0-0.553-0.447-1-1-1h-2   c-0.553,0-1,0.447-1,1v13C14,27.559,14.447,28.006,15,28.006z M15,14.005h2v13h-2V14.005z"
       fill="#333333"
       fill-rule="evenodd"
       id="path8"
       style="fill:#666666" /><path
       clip-rule="evenodd"
       d="M21,28.006h2c0.553,0,1-0.447,1-1v-13c0-0.553-0.447-1-1-1h-2   c-0.553,0-1,0.447-1,1v13C20,27.559,20.447,28.006,21,28.006z M21,14.005h2v13h-2V14.005z"
       fill="#333333"
       fill-rule="evenodd"
       id="path10"
       style="fill:#666666" /></g><path
     style="fill:#ffffff"
     d="M 7.7021865,29.965529 C 7.5494725,29.939965 7.2819631,29.845671 7.09017,29.749799 6.6311483,29.520348 6.276234,29.089107 6.0873538,28.53132 6.0265195,28.35167 6.0238954,28.029156 6.0152974,19.675388 l -0.00892,-8.669491 9.9834996,0 9.983499,0 -5.02e-4,8.618644 c -5.56e-4,9.558249 0.01751,8.820072 -0.227378,9.293115 -0.172219,0.332675 -0.529054,0.684034 -0.860199,0.846999 -0.486186,0.239265 0.153144,0.223548 -8.911922,0.219088 -4.502542,-0.0022 -8.224576,-0.01041 -8.2711862,-0.01821 l 7e-7,0 z m 3.7213365,-2.040507 c 0.106711,-0.04822 0.239182,-0.147852 0.328119,-0.246772 0.279388,-0.310746 0.257364,0.332913 0.247486,-7.232945 -0.0085,-6.53631 -0.01078,-6.748155 -0.07277,-6.863137 -0.124649,-0.231195 -0.261425,-0.369268 -0.468118,-0.472553 l -0.207558,-0.103718 -1.225835,0 c -1.394019,0 -1.4282757,0.0051 -1.7076889,0.256359 -0.098165,0.08826 -0.1978685,0.220971 -0.2459593,0.327389 l -0.080875,0.178964 0,6.729526 0,6.729526 0.1113526,0.22619 c 0.1279733,0.25995 0.3010124,0.415955 0.5633443,0.507886 0.1552558,0.05441 0.2946937,0.05971 1.376151,0.05235 1.187072,-0.0081 1.205816,-0.0093 1.382353,-0.08907 l 0,0 z m 6,0 c 0.106711,-0.04822 0.239182,-0.147852 0.328119,-0.246772 0.279388,-0.310746 0.257364,0.332913 0.247486,-7.232945 -0.0085,-6.53631 -0.01078,-6.748155 -0.07277,-6.863137 -0.124649,-0.231195 -0.261425,-0.369268 -0.468118,-0.472553 l -0.207558,-0.103718 -1.225835,0 c -1.394019,0 -1.428276,0.0051 -1.707689,0.256359 -0.09816,0.08826 -0.197869,0.220971 -0.245959,0.327389 l -0.08087,0.178964 0,6.729526 0,6.729526 0.111353,0.22619 c 0.127973,0.25995 0.301012,0.415955 0.563344,0.507886 0.155256,0.05441 0.294694,0.05971 1.376151,0.05235 1.187072,-0.0081 1.205816,-0.0093 1.382353,-0.08907 l 0,0 z m 6,0 c 0.106711,-0.04822 0.239182,-0.147852 0.328119,-0.246772 0.279388,-0.310746 0.257364,0.332913 0.247486,-7.232945 -0.0085,-6.53631 -0.01078,-6.748155 -0.07277,-6.863137 -0.124649,-0.231195 -0.261425,-0.369268 -0.468118,-0.472553 l -0.207558,-0.103718 -1.225835,0 c -1.394019,0 -1.428276,0.0051 -1.707689,0.256359 -0.09817,0.08826 -0.197869,0.220971 -0.245959,0.327389 l -0.08088,0.178964 0,6.729526 0,6.729526 0.111353,0.22619 c 0.127973,0.25995 0.301012,0.415955 0.563344,0.507886 0.155256,0.05441 0.294694,0.05971 1.376151,0.05235 1.187072,-0.0081 1.205816,-0.0093 1.382353,-0.08907 l 0,0 z"
     id="path3022"
     inkscape:connector-curvature="0" /><path
     style="fill:#ffffff"
     d="m 9.0242204,20.497422 0,-6.474576 0.9830506,0 0.983051,0 0,6.474576 0,6.474576 -0.983051,0 -0.9830506,0 0,-6.474576 z"
     id="path3024"
     inkscape:connector-curvature="0" /><path
     style="fill:#ffffff"
     d="M 7.7021865,29.965529 C 6.9639638,29.841953 6.3411614,29.289 6.0868085,28.53132 6.0267005,28.352268 6.0238668,28.001339 6.0152974,19.675388 l -0.00892,-8.669491 9.9834996,0 9.983499,0 -5.02e-4,8.618644 c -5.56e-4,9.558249 0.01751,8.820072 -0.227378,9.293115 -0.172219,0.332675 -0.529054,0.684034 -0.860199,0.846999 -0.486186,0.239265 0.153144,0.223548 -8.911922,0.219088 -4.502542,-0.0022 -8.224576,-0.01041 -8.2711862,-0.01821 l 7e-7,0 z m 3.7213365,-2.040507 c 0.217308,-0.0982 0.464129,-0.360996 0.52397,-0.557877 0.03389,-0.111502 0.04283,-1.548714 0.04283,-6.886672 l 0,-6.745763 -0.07196,-0.155572 c -0.09417,-0.203603 -0.285894,-0.391955 -0.500851,-0.492045 -0.171821,-0.08001 -0.180858,-0.08054 -1.378667,-0.08086 -1.3706485,-3.77e-4 -1.4434291,0.0098 -1.7026876,0.238005 -0.087989,0.07745 -0.1969194,0.221119 -0.2507136,0.330666 l -0.095124,0.19371 0,6.728813 c 0,6.401502 0.00296,6.735409 0.06089,6.864407 0.1475645,0.328602 0.394869,0.553342 0.6864239,0.623793 0.074754,0.01806 0.6588147,0.02971 1.3204825,0.02633 1.171456,-0.006 1.188701,-0.0071 1.365404,-0.08693 z m 6,0 c 0.217308,-0.0982 0.464129,-0.360996 0.52397,-0.557877 0.03389,-0.111502 0.04283,-1.548714 0.04283,-6.886672 l 0,-6.745763 -0.07196,-0.155572 c -0.09417,-0.203603 -0.285894,-0.391955 -0.500851,-0.492045 -0.171821,-0.08001 -0.180858,-0.08054 -1.378667,-0.08086 -1.370649,-3.77e-4 -1.443429,0.0098 -1.702688,0.238005 -0.08799,0.07745 -0.196919,0.221119 -0.250713,0.330666 l -0.09512,0.19371 0,6.728813 c 0,6.401502 0.003,6.735409 0.06089,6.864407 0.147564,0.328602 0.394869,0.553342 0.686424,0.623793 0.07475,0.01806 0.658814,0.02971 1.320482,0.02633 1.171456,-0.006 1.188701,-0.0071 1.365404,-0.08693 z m 6,0 c 0.217308,-0.0982 0.464129,-0.360996 0.52397,-0.557877 0.03389,-0.111502 0.04283,-1.548714 0.04283,-6.886672 l 0,-6.745763 -0.07196,-0.155572 c -0.09417,-0.203603 -0.285894,-0.391955 -0.500851,-0.492045 -0.171821,-0.08001 -0.180858,-0.08054 -1.378667,-0.08086 -1.370649,-3.77e-4 -1.443429,0.0098 -1.702688,0.238005 -0.08799,0.07745 -0.196919,0.221119 -0.250713,0.330666 l -0.09512,0.19371 0,6.728813 c 0,6.401502 0.003,6.735409 0.06089,6.864407 0.147564,0.328602 0.394869,0.553342 0.686424,0.623793 0.07475,0.01806 0.658814,0.02971 1.320482,0.02633 1.171456,-0.006 1.188701,-0.0071 1.365404,-0.08693 z"
     id="path3026"
     inkscape:connector-curvature="0" /><path
     style="fill:#ffffff"
     d="m 15.02422,20.497422 0,-6.474576 0.983051,0 0.983051,0 0,6.474576 0,6.474576 -0.983051,0 -0.983051,0 0,-6.474576 z"
     id="path3028"
     inkscape:connector-curvature="0" /><path
     style="fill:#ffffff"
     d="M 7.5763734,29.9378 C 6.9039262,29.791669 6.3270526,29.246972 6.0868085,28.53132 6.0267005,28.352268 6.0238668,28.001339 6.0152974,19.675388 l -0.00892,-8.669491 9.9834996,0 9.983499,0 -5.02e-4,8.618644 c -4.4e-4,7.561368 -0.0068,8.645245 -0.05162,8.835488 -0.16926,0.718051 -0.795031,1.324841 -1.524155,1.477922 -0.34068,0.07153 -16.4915603,0.07138 -16.8207282,-1.36e-4 l 6e-7,-1.5e-5 z m 3.8248776,-2.004355 c 0.224301,-0.103713 0.416005,-0.290473 0.508747,-0.495628 l 0.08032,-0.177683 0,-6.762712 0,-6.762712 -0.07168,-0.152542 C 11.833555,13.401072 11.63606,13.197 11.447949,13.095796 c -0.130333,-0.07012 -0.182094,-0.07334 -1.334227,-0.08306 -0.7996945,-0.0067 -1.2601985,0.0027 -1.3836077,0.02829 -0.2493992,0.05177 -0.4946978,0.253519 -0.6347918,0.522081 l -0.1050004,0.201287 0,6.713967 c 0,6.522136 0.00185,6.718753 0.064603,6.881471 0.1152927,0.298933 0.4187224,0.569446 0.7043546,0.627945 0.080463,0.01648 0.672568,0.0273 1.3157885,0.02404 1.116363,-0.0057 1.17661,-0.0092 1.326183,-0.07838 z m 6,0 c 0.224301,-0.103713 0.416005,-0.290473 0.508747,-0.495628 l 0.08032,-0.177683 0,-6.762712 0,-6.762712 -0.07167,-0.152542 C 17.833555,13.401072 17.63606,13.197 17.447949,13.095796 c -0.130333,-0.07012 -0.182094,-0.07334 -1.334227,-0.08306 -0.799695,-0.0067 -1.260199,0.0027 -1.383608,0.02829 -0.249399,0.05177 -0.494697,0.253519 -0.634792,0.522081 l -0.105,0.201287 0,6.713967 c 0,6.522136 0.0018,6.718753 0.0646,6.881471 0.115293,0.298933 0.418722,0.569446 0.704354,0.627945 0.08046,0.01648 0.672568,0.0273 1.315789,0.02404 1.116363,-0.0057 1.17661,-0.0092 1.326183,-0.07838 l 0,0 z m 6,0 c 0.224301,-0.103713 0.416005,-0.290473 0.508747,-0.495628 l 0.08032,-0.177683 0,-6.762712 0,-6.762712 -0.07167,-0.152542 C 23.833555,13.401072 23.63606,13.197 23.447949,13.095796 c -0.130333,-0.07012 -0.182094,-0.07334 -1.334227,-0.08306 -0.799695,-0.0067 -1.260199,0.0027 -1.383608,0.02829 -0.249399,0.05177 -0.494697,0.253519 -0.634792,0.522081 l -0.105,0.201287 0,6.713967 c 0,6.522136 0.0018,6.718753 0.0646,6.881471 0.115293,0.298933 0.418722,0.569446 0.704354,0.627945 0.08046,0.01648 0.672568,0.0273 1.315789,0.02404 1.116363,-0.0057 1.17661,-0.0092 1.326183,-0.07838 l 0,0 z"
     id="path3030"
     inkscape:connector-curvature="0" /><path
     style="fill:#ffffff"
     d="m 21.02422,20.497422 0,-6.474576 0.983051,0 0.983051,0 0,6.474576 0,6.474576 -0.983051,0 -0.983051,0 0,-6.474576 z"
     id="path3032"
     inkscape:connector-curvature="0" /><path
     style="fill:#ffffff"
     d="M 7.5813486,29.938815 C 6.8893125,29.788204 6.3366582,29.267547 6.0873538,28.53132 6.0265195,28.35167 6.0238954,28.029156 6.0152974,19.675388 l -0.00892,-8.669491 9.9834996,0 9.983499,0 0,8.608501 c 0,6.176683 -0.01063,8.659246 -0.03762,8.788135 -0.158144,0.755071 -0.780655,1.376275 -1.538648,1.535418 -0.205136,0.04307 -1.34656,0.04953 -8.423729,0.04771 -6.64783,-0.0017 -8.2250795,-0.01052 -8.3920244,-0.04685 z m 3.7961904,-1.994504 c 0.220933,-0.09719 0.41453,-0.280448 0.517255,-0.48964 l 0.09553,-0.194537 0,-6.762712 c 0,-6.216857 -0.0045,-6.77267 -0.05603,-6.886087 -0.07769,-0.171082 -0.281712,-0.388475 -0.46656,-0.497145 l -0.155378,-0.09134 -1.305085,0 -1.3050845,0 -0.1815442,0.100555 c -0.2015824,0.111654 -0.3415396,0.263219 -0.454933,0.492665 l -0.075387,0.152543 0.00145,6.728813 0.00145,6.728814 0.071006,0.156691 c 0.1455057,0.321094 0.428039,0.548693 0.7539141,0.607327 0.085381,0.01536 0.666256,0.02447 1.2908321,0.02024 0.990409,-0.0067 1.152595,-0.01517 1.268573,-0.06619 l 0,0 z m 6,0 c 0.220933,-0.09719 0.41453,-0.280448 0.517255,-0.48964 l 0.09553,-0.194537 0,-6.762712 c 0,-6.216857 -0.0045,-6.77267 -0.05603,-6.886087 -0.07769,-0.171082 -0.281712,-0.388475 -0.46656,-0.497145 l -0.155378,-0.09134 -1.305085,0 -1.305085,0 -0.181544,0.100555 c -0.201582,0.111654 -0.341539,0.263219 -0.454932,0.492665 l -0.07539,0.152543 0.0014,6.728813 0.0014,6.728814 0.07101,0.156691 c 0.145506,0.321094 0.428039,0.548693 0.753914,0.607327 0.08538,0.01536 0.666256,0.02447 1.290832,0.02024 0.990409,-0.0067 1.152595,-0.01517 1.268573,-0.06619 l -3e-6,0 z m 6,0 c 0.220933,-0.09719 0.41453,-0.280448 0.517255,-0.48964 l 0.09553,-0.194537 0,-6.762712 c 0,-6.216857 -0.0045,-6.77267 -0.05603,-6.886087 -0.07769,-0.171082 -0.281712,-0.388475 -0.46656,-0.497145 l -0.155378,-0.09134 -1.305085,0 -1.305085,0 -0.181544,0.100555 c -0.201582,0.111654 -0.341539,0.263219 -0.454932,0.492665 l -0.07539,0.152543 0.0014,6.728813 0.0014,6.728814 0.07101,0.156691 c 0.145506,0.321094 0.428039,0.548693 0.753915,0.607327 0.08538,0.01536 0.666256,0.02447 1.290832,0.02024 0.990409,-0.0067 1.152594,-0.01517 1.268573,-0.06619 l 0,0 z"
     id="path3034"
     inkscape:connector-curvature="0" /><path
     style="fill:#ffffff"
     d="M 4.0132532,7.8787781 C 4.0235587,6.8515162 4.0285269,6.7762503 4.0955985,6.6312932 4.1957273,6.4148919 4.3617859,6.237296 4.5635417,6.1308384 l 0.1725431,-0.091043 11.2100562,-0.00868 11.210055,-0.00868 0.185682,0.069472 c 0.21231,0.079435 0.423854,0.2687194 0.536872,0.4803781 0.07582,0.1419937 0.07792,0.172376 0.08784,1.2725853 l 0.01017,1.1271186 -11.98724,0 -11.987239,0 0.010967,-1.0932203 z"
     id="path3036"
     inkscape:connector-curvature="0" /><path
     style="fill:#ffffff"
     d="m 10.013527,3.3872527 c 0.01185,-0.5159686 0.02376,-0.6236738 0.08363,-0.7559595 0.09731,-0.2150153 0.263605,-0.3934588 0.466382,-0.5004548 l 0.172543,-0.091043 5.209464,-0.0089 c 5.184658,-0.00885 5.210351,-0.00857 5.395737,0.060797 0.212927,0.079666 0.424318,0.268694 0.537456,0.4805995 0.07158,0.1340652 0.07854,0.1952836 0.08879,0.7810599 l 0.01112,0.6355932 -5.989472,0 -5.9894717,0 0.013816,-0.6016949 z"
     id="path3038"
     inkscape:connector-curvature="0" /></svg>